<svg width="95" height="95" viewBox="0 0 95 95" fill="none" xmlns="http://www.w3.org/2000/svg">
<rect width="95" height="95" rx="10" fill="#358240"/>
<path d="M25.715 71.195C24.115 71.195 22.865 70.765 21.965 69.905C21.065 69.045 20.615 67.83 20.615 66.26C20.615 65.19 20.825 64.245 21.245 63.425C21.675 62.605 22.28 61.975 23.06 61.535C23.84 61.085 24.74 60.86 25.76 60.86C26.59 60.86 27.39 61.01 28.16 61.31L27.755 63.245C27.075 62.935 26.415 62.78 25.775 62.78C24.865 62.78 24.145 63.08 23.615 63.68C23.085 64.27 22.82 65.06 22.82 66.05C22.82 67.06 23.1 67.845 23.66 68.405C24.22 68.965 24.995 69.245 25.985 69.245C26.635 69.245 27.265 69.14 27.875 68.93L28.205 70.775C27.475 71.055 26.645 71.195 25.715 71.195ZM33.2755 71.225C32.4955 71.225 31.8055 71.055 31.2055 70.715C30.6155 70.375 30.1555 69.9 29.8255 69.29C29.4955 68.67 29.3305 67.955 29.3305 67.145C29.3305 66.335 29.4905 65.625 29.8105 65.015C30.1405 64.395 30.6005 63.915 31.1905 63.575C31.7905 63.235 32.4805 63.065 33.2605 63.065C34.0405 63.065 34.7255 63.235 35.3155 63.575C35.9155 63.905 36.3755 64.375 36.6955 64.985C37.0255 65.595 37.1905 66.3 37.1905 67.1C37.1905 67.91 37.0255 68.63 36.6955 69.26C36.3755 69.88 35.9155 70.365 35.3155 70.715C34.7255 71.055 34.0455 71.225 33.2755 71.225ZM33.2605 69.395C33.8005 69.395 34.2305 69.19 34.5505 68.78C34.8805 68.36 35.0455 67.81 35.0455 67.13C35.0455 66.45 34.8805 65.91 34.5505 65.51C34.2305 65.1 33.8005 64.895 33.2605 64.895C32.7205 64.895 32.2855 65.1 31.9555 65.51C31.6355 65.91 31.4755 66.45 31.4755 67.13C31.4755 67.81 31.6355 68.36 31.9555 68.78C32.2855 69.19 32.7205 69.395 33.2605 69.395ZM38.7582 63.275H40.8282V64.61C41.1482 64.08 41.5182 63.69 41.9382 63.44C42.3582 63.19 42.8482 63.065 43.4082 63.065C44.2382 63.065 44.8882 63.315 45.3582 63.815C45.8282 64.305 46.0632 64.99 46.0632 65.87V71H43.9482V66.2C43.9482 65.8 43.8482 65.49 43.6482 65.27C43.4482 65.04 43.1782 64.925 42.8382 64.925C42.4382 64.925 42.0582 65.075 41.6982 65.375C41.3382 65.675 41.0632 66.055 40.8732 66.515V71H38.7582V63.275ZM50.6313 71.225C49.9113 71.225 49.3513 71.045 48.9513 70.685C48.5613 70.315 48.3663 69.795 48.3663 69.125V65.09H47.1663V63.275H48.3663V61.625C49.0763 61.505 49.7763 61.415 50.4663 61.355V63.275H52.4163V65.09H50.4663V68.735C50.4663 68.945 50.5263 69.105 50.6463 69.215C50.7763 69.325 50.9563 69.38 51.1863 69.38C51.4663 69.38 51.7863 69.315 52.1463 69.185L52.6113 70.775C51.9713 71.075 51.3113 71.225 50.6313 71.225ZM55.9786 71.225C55.1786 71.225 54.5436 70.885 54.0736 70.205C53.6036 69.525 53.3686 68.6 53.3686 67.43C53.3686 66.01 53.7286 64.93 54.4486 64.19C55.1686 63.44 56.2036 63.065 57.5536 63.065C58.3136 63.065 59.2036 63.185 60.2236 63.425V71H58.2136L58.2586 69.77H58.1986C57.9386 70.24 57.6186 70.6 57.2386 70.85C56.8686 71.1 56.4486 71.225 55.9786 71.225ZM56.4286 69.38C56.7386 69.38 57.0436 69.215 57.3436 68.885C57.6436 68.555 57.9236 68.115 58.1836 67.565V65.045C57.8636 64.955 57.5436 64.91 57.2236 64.91C56.6236 64.91 56.1686 65.115 55.8586 65.525C55.5586 65.935 55.4086 66.54 55.4086 67.34C55.4086 67.97 55.4986 68.47 55.6786 68.84C55.8586 69.2 56.1086 69.38 56.4286 69.38ZM65.7664 71.225C64.4864 71.225 63.4914 70.885 62.7814 70.205C62.0814 69.525 61.7314 68.565 61.7314 67.325C61.7314 66.485 61.8964 65.745 62.2264 65.105C62.5564 64.455 63.0214 63.955 63.6214 63.605C64.2214 63.245 64.9164 63.065 65.7064 63.065C66.0764 63.065 66.4614 63.11 66.8614 63.2C67.2714 63.28 67.5864 63.375 67.8064 63.485L67.4014 65.27C67.1714 65.16 66.9164 65.075 66.6364 65.015C66.3664 64.945 66.1114 64.91 65.8714 64.91C65.2514 64.91 64.7514 65.12 64.3714 65.54C64.0014 65.96 63.8164 66.515 63.8164 67.205C63.8164 67.905 64.0064 68.445 64.3864 68.825C64.7764 69.205 65.3264 69.395 66.0364 69.395C66.5064 69.395 67.0114 69.305 67.5514 69.125L67.8664 70.835C67.2164 71.095 66.5164 71.225 65.7664 71.225ZM72.4135 71.225C71.6935 71.225 71.1335 71.045 70.7335 70.685C70.3435 70.315 70.1485 69.795 70.1485 69.125V65.09H68.9485V63.275H70.1485V61.625C70.8585 61.505 71.5585 61.415 72.2485 61.355V63.275H74.1985V65.09H72.2485V68.735C72.2485 68.945 72.3085 69.105 72.4285 69.215C72.5585 69.325 72.7385 69.38 72.9685 69.38C73.2485 69.38 73.5685 69.315 73.9285 69.185L74.3935 70.775C73.7535 71.075 73.0935 71.225 72.4135 71.225Z" fill="white"/>
<path d="M38.1473 22.5882C37.0711 21.5229 35.9052 22.1443 35.4568 22.5882C34.4105 23.7718 32.0489 26.4054 30.9727 27.4707C29.8965 28.5359 29.9264 29.0982 30.0758 29.2461C39.4167 47.744 48.9093 52.4749 56.5324 55.8779C57.9673 56.233 58.9239 55.7299 59.2229 55.434L64.6038 50.5515C65.3213 49.8413 64.9028 49.072 64.6038 48.7761L58.326 42.562C57.6086 41.4967 56.5324 42.1181 56.0839 42.562L53.3935 45.2252C52.676 45.9353 51.8987 45.817 51.5998 45.669C46.5914 43.7493 41.2862 36.3479 40.8378 35.4602C40.4791 34.75 40.9873 33.9806 41.2862 33.6847L43.9767 31.0216C45.0529 29.9563 44.4251 28.8023 43.9767 28.3584L38.1473 22.5882Z" stroke="white" stroke-width="2"/>
</svg>
