<svg width="95" height="95" viewBox="0 0 95 95" fill="none" xmlns="http://www.w3.org/2000/svg">
<rect width="95" height="95" rx="10" fill="#358240"/>
<path d="M24.625 71.015C23.915 71.015 23.385 71.01 23.035 71V61.01C23.465 61 24.1 60.995 24.94 60.995C25.79 60.995 26.425 61 26.845 61.01C27.825 61.02 28.675 61.22 29.395 61.61C30.125 61.99 30.685 62.535 31.075 63.245C31.475 63.955 31.675 64.785 31.675 65.735C31.675 66.775 31.445 67.69 30.985 68.48C30.535 69.27 29.895 69.885 29.065 70.325C28.245 70.765 27.29 70.99 26.2 71C25.85 71.01 25.325 71.015 24.625 71.015ZM26.185 69.11C27.195 69.11 27.99 68.815 28.57 68.225C29.15 67.635 29.44 66.825 29.44 65.795C29.44 64.865 29.19 64.15 28.69 63.65C28.2 63.15 27.49 62.9 26.56 62.9H25.21V69.11H26.185ZM36.9307 71.225C36.1507 71.225 35.4607 71.055 34.8607 70.715C34.2707 70.375 33.8107 69.9 33.4807 69.29C33.1507 68.67 32.9857 67.955 32.9857 67.145C32.9857 66.335 33.1457 65.625 33.4657 65.015C33.7957 64.395 34.2557 63.915 34.8457 63.575C35.4457 63.235 36.1357 63.065 36.9157 63.065C37.6957 63.065 38.3807 63.235 38.9707 63.575C39.5707 63.905 40.0307 64.375 40.3507 64.985C40.6807 65.595 40.8457 66.3 40.8457 67.1C40.8457 67.91 40.6807 68.63 40.3507 69.26C40.0307 69.88 39.5707 70.365 38.9707 70.715C38.3807 71.055 37.7007 71.225 36.9307 71.225ZM36.9157 69.395C37.4557 69.395 37.8857 69.19 38.2057 68.78C38.5357 68.36 38.7007 67.81 38.7007 67.13C38.7007 66.45 38.5357 65.91 38.2057 65.51C37.8857 65.1 37.4557 64.895 36.9157 64.895C36.3757 64.895 35.9407 65.1 35.6107 65.51C35.2907 65.91 35.1307 66.45 35.1307 67.13C35.1307 67.81 35.2907 68.36 35.6107 68.78C35.9407 69.19 36.3757 69.395 36.9157 69.395ZM42.4135 63.275H44.4835V64.61C44.8035 64.08 45.1735 63.69 45.5935 63.44C46.0135 63.19 46.5035 63.065 47.0635 63.065C47.8935 63.065 48.5435 63.315 49.0135 63.815C49.4835 64.305 49.7185 64.99 49.7185 65.87V71H47.6035V66.2C47.6035 65.8 47.5035 65.49 47.3035 65.27C47.1035 65.04 46.8335 64.925 46.4935 64.925C46.0935 64.925 45.7135 65.075 45.3535 65.375C44.9935 65.675 44.7185 66.055 44.5285 66.515V71H42.4135V63.275ZM53.9063 71.225C53.1063 71.225 52.4713 70.885 52.0013 70.205C51.5313 69.525 51.2963 68.6 51.2963 67.43C51.2963 66.01 51.6563 64.93 52.3763 64.19C53.0963 63.44 54.1313 63.065 55.4813 63.065C56.2413 63.065 57.1313 63.185 58.1513 63.425V71H56.1413L56.1863 69.77H56.1263C55.8663 70.24 55.5463 70.6 55.1663 70.85C54.7963 71.1 54.3763 71.225 53.9063 71.225ZM54.3563 69.38C54.6663 69.38 54.9713 69.215 55.2713 68.885C55.5713 68.555 55.8513 68.115 56.1113 67.565V65.045C55.7913 64.955 55.4713 64.91 55.1513 64.91C54.5513 64.91 54.0963 65.115 53.7863 65.525C53.4863 65.935 53.3363 66.54 53.3363 67.34C53.3363 67.97 53.4263 68.47 53.6063 68.84C53.7863 69.2 54.0363 69.38 54.3563 69.38ZM63.0024 71.225C62.2824 71.225 61.7224 71.045 61.3224 70.685C60.9324 70.315 60.7374 69.795 60.7374 69.125V65.09H59.5374V63.275H60.7374V61.625C61.4474 61.505 62.1474 61.415 62.8374 61.355V63.275H64.7874V65.09H62.8374V68.735C62.8374 68.945 62.8974 69.105 63.0174 69.215C63.1474 69.325 63.3274 69.38 63.5574 69.38C63.8374 69.38 64.1574 69.315 64.5174 69.185L64.9824 70.775C64.3424 71.075 63.6824 71.225 63.0024 71.225ZM69.7596 71.225C68.5096 71.225 67.5246 70.865 66.8046 70.145C66.0946 69.425 65.7396 68.425 65.7396 67.145C65.7396 66.315 65.8946 65.595 66.2046 64.985C66.5146 64.365 66.9496 63.89 67.5096 63.56C68.0796 63.23 68.7446 63.065 69.5046 63.065C70.6246 63.065 71.4846 63.425 72.0846 64.145C72.6846 64.865 72.9846 65.905 72.9846 67.265C72.9846 67.495 72.9796 67.665 72.9696 67.775H67.8696C67.9696 68.305 68.1996 68.71 68.5596 68.99C68.9196 69.26 69.4046 69.395 70.0146 69.395C70.3846 69.395 70.7696 69.35 71.1696 69.26C71.5696 69.16 71.9196 69.03 72.2196 68.87L72.5646 70.565C72.1646 70.775 71.7196 70.935 71.2296 71.045C70.7496 71.165 70.2596 71.225 69.7596 71.225ZM70.9596 66.185C70.9296 65.755 70.7796 65.415 70.5096 65.165C70.2396 64.905 69.8796 64.775 69.4296 64.775C68.9996 64.775 68.6446 64.9 68.3646 65.15C68.0946 65.4 67.9246 65.745 67.8546 66.185H70.9596Z" fill="white"/>
<circle cx="47.5" cy="36.5" r="18.5" stroke="white" stroke-width="2"/>
<path d="M49 23C49 22.4477 48.5523 22 48 22C47.4477 22 47 22.4477 47 23H49ZM49 27.2059V24.7206H47V27.2059H49ZM49 24.7206V23H47V24.7206H49Z" fill="white"/>
<path d="M47 50.2059C47 50.7582 47.4477 51.2059 48 51.2059C48.5523 51.2059 49 50.7582 49 50.2059H47ZM47 46V48.4853H49V46H47ZM47 48.4853V50.2059H49V48.4853H47Z" fill="white"/>
<path d="M52.8428 41.6094C52.8428 41.1113 52.7646 40.6719 52.6084 40.291C52.4619 39.9004 52.1982 39.5488 51.8174 39.2363C51.4463 38.9238 50.9287 38.626 50.2646 38.3428C49.6104 38.0596 48.7803 37.7715 47.7744 37.4785C46.7197 37.166 45.7676 36.8193 44.918 36.4385C44.0684 36.0479 43.3408 35.6035 42.7354 35.1055C42.1299 34.6074 41.666 34.0361 41.3438 33.3916C41.0215 32.7471 40.8604 32.0098 40.8604 31.1797C40.8604 30.3496 41.0312 29.583 41.373 28.8799C41.7148 28.1768 42.2031 27.5664 42.8379 27.0488C43.4824 26.5215 44.249 26.1113 45.1377 25.8184C46.0264 25.5254 47.0176 25.3789 48.1113 25.3789C49.7129 25.3789 51.0703 25.6865 52.1836 26.3018C53.3066 26.9072 54.1611 27.7031 54.7471 28.6895C55.333 29.666 55.626 30.7109 55.626 31.8242H52.8135C52.8135 31.0234 52.6426 30.3154 52.3008 29.7002C51.959 29.0752 51.4414 28.5869 50.748 28.2354C50.0547 27.874 49.1758 27.6934 48.1113 27.6934C47.1055 27.6934 46.2754 27.8447 45.6211 28.1475C44.9668 28.4502 44.4785 28.8604 44.1562 29.3779C43.8438 29.8955 43.6875 30.4863 43.6875 31.1504C43.6875 31.5996 43.7803 32.0098 43.9658 32.3809C44.1611 32.7422 44.459 33.0791 44.8594 33.3916C45.2695 33.7041 45.7871 33.9922 46.4121 34.2559C47.0469 34.5195 47.8037 34.7734 48.6826 35.0176C49.8936 35.3594 50.9385 35.7402 51.8174 36.1602C52.6963 36.5801 53.4189 37.0537 53.9854 37.5811C54.5615 38.0986 54.9863 38.6895 55.2598 39.3535C55.543 40.0078 55.6846 40.75 55.6846 41.5801C55.6846 42.4492 55.5088 43.2354 55.1572 43.9385C54.8057 44.6416 54.3027 45.2422 53.6484 45.7402C52.9941 46.2383 52.208 46.624 51.29 46.8975C50.3818 47.1611 49.3662 47.293 48.2432 47.293C47.2568 47.293 46.2852 47.1562 45.3281 46.8828C44.3809 46.6094 43.5166 46.1992 42.7354 45.6523C41.9639 45.1055 41.3438 44.4316 40.875 43.6309C40.416 42.8203 40.1865 41.8828 40.1865 40.8184H42.999C42.999 41.5508 43.1406 42.1807 43.4238 42.708C43.707 43.2256 44.0928 43.6553 44.5811 43.9971C45.0791 44.3389 45.6406 44.5928 46.2656 44.7588C46.9004 44.915 47.5596 44.9932 48.2432 44.9932C49.2295 44.9932 50.0645 44.8564 50.748 44.583C51.4316 44.3096 51.9492 43.9189 52.3008 43.4111C52.6621 42.9033 52.8428 42.3027 52.8428 41.6094Z" fill="white"/>
</svg>
