<svg width="44" height="44" viewBox="0 0 44 44" fill="none" xmlns="http://www.w3.org/2000/svg">
<path d="M0 10C0 4.47715 4.47715 0 10 0H34C39.5228 0 44 4.47715 44 10V34C44 39.5228 39.5228 44 34 44H10C4.47715 44 0 39.5228 0 34V10Z" fill="#355E3B"/>
<path d="M22 25C23.6569 25 25 23.6569 25 22C25 20.3431 23.6569 19 22 19C20.3431 19 19 20.3431 19 22C19 23.6569 20.3431 25 22 25Z" fill="white"/>
<path fill-rule="evenodd" clip-rule="evenodd" d="M17 12C14.2386 12 12 14.2386 12 17V27C12 29.7614 14.2386 32 17 32H27C29.7614 32 32 29.7614 32 27V17C32 14.2386 29.7614 12 27 12H17ZM22 27C24.7614 27 27 24.7614 27 22C27 19.2386 24.7614 17 22 17C19.2386 17 17 19.2386 17 22C17 24.7614 19.2386 27 22 27ZM29 16C29 16.5523 28.5523 17 28 17C27.4477 17 27 16.5523 27 16C27 15.4477 27.4477 15 28 15C28.5523 15 29 15.4477 29 16Z" fill="white"/>
</svg>
