<svg width="44" height="44" viewBox="0 0 44 44" fill="none" xmlns="http://www.w3.org/2000/svg">
<path d="M0 10C0 4.47715 4.47715 0 10 0H34C39.5228 0 44 4.47715 44 10V34C44 39.5228 39.5228 44 34 44H10C4.47715 44 0 39.5228 0 34V10Z" fill="#355E3B"/>
<path d="M22 32C27.5228 32 32 27.5228 32 22C32 16.4771 27.5228 12 22 12C16.4771 12 12 16.4771 12 22C12 25.9463 14.2859 29.3587 17.6058 30.9853C17.8765 31.1179 18.1945 30.9636 18.2751 30.6732L21.0365 20.7324C21.1843 20.2002 21.7355 19.8887 22.2677 20.0365C22.7998 20.1843 23.1114 20.7355 22.9635 21.2676L21.9112 25.056C23.1622 25.3211 24.0396 25.0944 24.627 24.7061C25.3701 24.215 25.8472 23.3358 25.9668 22.2917C26.0864 21.2467 25.8305 20.1502 25.2459 19.338C24.6827 18.5555 23.7931 18 22.5 18C20.5791 18 19.4357 18.8312 18.8779 19.8539C18.2973 20.9183 18.2786 22.3212 18.8944 23.5528C19.1414 24.0468 18.9412 24.6474 18.4472 24.8944C17.9532 25.1414 17.3526 24.9412 17.1056 24.4472C16.2214 22.6788 16.2027 20.5817 17.1221 18.8961C18.0643 17.1688 19.921 16 22.5 16C24.457 16 25.9423 16.8819 26.8692 18.1696C27.7746 19.4276 28.1239 21.0338 27.9538 22.5192C27.7836 24.0056 27.0762 25.4847 25.7299 26.3746C24.5809 27.134 23.1012 27.3769 21.3753 26.9852L20.18 31.2882C20.1022 31.5684 20.2789 31.8567 20.5667 31.8981C21.0348 31.9652 21.5133 32 22 32Z" fill="white"/>
</svg>
