<svg width="95" height="95" viewBox="0 0 95 95" fill="none" xmlns="http://www.w3.org/2000/svg">
<rect width="95" height="95" rx="10" fill="#358240"/>
<path d="M12.15 61.01H14.55L16.92 68.63L19.275 61.01H21.51L18.15 71H15.525L12.15 61.01ZM25.5977 71.225C24.8177 71.225 24.1277 71.055 23.5277 70.715C22.9377 70.375 22.4777 69.9 22.1477 69.29C21.8177 68.67 21.6527 67.955 21.6527 67.145C21.6527 66.335 21.8127 65.625 22.1327 65.015C22.4627 64.395 22.9227 63.915 23.5127 63.575C24.1127 63.235 24.8027 63.065 25.5827 63.065C26.3627 63.065 27.0477 63.235 27.6377 63.575C28.2377 63.905 28.6977 64.375 29.0177 64.985C29.3477 65.595 29.5127 66.3 29.5127 67.1C29.5127 67.91 29.3477 68.63 29.0177 69.26C28.6977 69.88 28.2377 70.365 27.6377 70.715C27.0477 71.055 26.3677 71.225 25.5977 71.225ZM25.5827 69.395C26.1227 69.395 26.5527 69.19 26.8727 68.78C27.2027 68.36 27.3677 67.81 27.3677 67.13C27.3677 66.45 27.2027 65.91 26.8727 65.51C26.5527 65.1 26.1227 64.895 25.5827 64.895C25.0427 64.895 24.6077 65.1 24.2777 65.51C23.9577 65.91 23.7977 66.45 23.7977 67.13C23.7977 67.81 23.9577 68.36 24.2777 68.78C24.6077 69.19 25.0427 69.395 25.5827 69.395ZM30.4425 69.185H31.8075V61.85H30.5175V60.05H33.9225V69.185H35.2875V71H30.4425V69.185ZM39.1679 71.21C38.3479 71.21 37.7029 70.96 37.2329 70.46C36.7629 69.96 36.5279 69.275 36.5279 68.405V63.275H38.6429V68.06C38.6429 68.47 38.7429 68.79 38.9429 69.02C39.1429 69.24 39.4129 69.35 39.7529 69.35C40.0929 69.35 40.4179 69.24 40.7279 69.02C41.0479 68.8 41.3129 68.505 41.5229 68.135V63.275H43.6379V71H41.5229V69.98C41.2329 70.37 40.8979 70.675 40.5179 70.895C40.1479 71.105 39.6979 71.21 39.1679 71.21ZM45.5824 63.275H47.6524V64.61C47.9724 64.08 48.3424 63.69 48.7624 63.44C49.1824 63.19 49.6724 63.065 50.2324 63.065C51.0624 63.065 51.7124 63.315 52.1824 63.815C52.6524 64.305 52.8874 64.99 52.8874 65.87V71H50.7724V66.2C50.7724 65.8 50.6724 65.49 50.4724 65.27C50.2724 65.04 50.0024 64.925 49.6624 64.925C49.2624 64.925 48.8824 65.075 48.5224 65.375C48.1624 65.675 47.8874 66.055 47.6974 66.515V71H45.5824V63.275ZM57.4555 71.225C56.7355 71.225 56.1755 71.045 55.7755 70.685C55.3855 70.315 55.1905 69.795 55.1905 69.125V65.09H53.9905V63.275H55.1905V61.625C55.9005 61.505 56.6005 61.415 57.2905 61.355V63.275H59.2405V65.09H57.2905V68.735C57.2905 68.945 57.3505 69.105 57.4705 69.215C57.6005 69.325 57.7805 69.38 58.0105 69.38C58.2905 69.38 58.6105 69.315 58.9705 69.185L59.4355 70.775C58.7955 71.075 58.1355 71.225 57.4555 71.225ZM64.2128 71.225C62.9628 71.225 61.9778 70.865 61.2578 70.145C60.5478 69.425 60.1928 68.425 60.1928 67.145C60.1928 66.315 60.3478 65.595 60.6578 64.985C60.9678 64.365 61.4028 63.89 61.9628 63.56C62.5328 63.23 63.1978 63.065 63.9578 63.065C65.0778 63.065 65.9378 63.425 66.5378 64.145C67.1378 64.865 67.4378 65.905 67.4378 67.265C67.4378 67.495 67.4328 67.665 67.4228 67.775H62.3228C62.4228 68.305 62.6528 68.71 63.0128 68.99C63.3728 69.26 63.8578 69.395 64.4678 69.395C64.8378 69.395 65.2228 69.35 65.6228 69.26C66.0228 69.16 66.3728 69.03 66.6728 68.87L67.0178 70.565C66.6178 70.775 66.1728 70.935 65.6828 71.045C65.2028 71.165 64.7128 71.225 64.2128 71.225ZM65.4128 66.185C65.3828 65.755 65.2328 65.415 64.9628 65.165C64.6928 64.905 64.3328 64.775 63.8828 64.775C63.4528 64.775 63.0978 64.9 62.8178 65.15C62.5478 65.4 62.3778 65.745 62.3078 66.185H65.4128ZM72.7382 71.225C71.4882 71.225 70.5032 70.865 69.7832 70.145C69.0732 69.425 68.7182 68.425 68.7182 67.145C68.7182 66.315 68.8732 65.595 69.1832 64.985C69.4932 64.365 69.9282 63.89 70.4882 63.56C71.0582 63.23 71.7232 63.065 72.4832 63.065C73.6032 63.065 74.4632 63.425 75.0632 64.145C75.6632 64.865 75.9632 65.905 75.9632 67.265C75.9632 67.495 75.9582 67.665 75.9482 67.775H70.8482C70.9482 68.305 71.1782 68.71 71.5382 68.99C71.8982 69.26 72.3832 69.395 72.9932 69.395C73.3632 69.395 73.7482 69.35 74.1482 69.26C74.5482 69.16 74.8982 69.03 75.1982 68.87L75.5432 70.565C75.1432 70.775 74.6982 70.935 74.2082 71.045C73.7282 71.165 73.2382 71.225 72.7382 71.225ZM73.9382 66.185C73.9082 65.755 73.7582 65.415 73.4882 65.165C73.2182 64.905 72.8582 64.775 72.4082 64.775C71.9782 64.775 71.6232 64.9 71.3432 65.15C71.0732 65.4 70.9032 65.745 70.8332 66.185H73.9382ZM77.5903 63.275H79.7053V64.535H79.8253C80.1153 64.025 80.4003 63.65 80.6803 63.41C80.9703 63.17 81.3303 63.05 81.7603 63.05C81.9403 63.05 82.0903 63.07 82.2103 63.11L81.9853 65.39C81.7253 65.32 81.5153 65.285 81.3553 65.285C81.1253 65.285 80.9203 65.33 80.7403 65.42C80.5703 65.51 80.4153 65.63 80.2753 65.78C80.1453 65.93 79.9553 66.16 79.7053 66.47V71H77.5903V63.275Z" fill="white"/>
<path d="M50 41.5L50.0665 40.5022L50.0333 40.5H50V41.5ZM53.7283 42.5572L52.8645 43.0611L52.8645 43.0611L53.7283 42.5572ZM54.076 44.3069L55.0628 44.469L55.0628 44.469L54.076 44.3069ZM29.0641 45.7774L28.2641 45.1774L28.2641 45.1774L29.0641 45.7774ZM29.6025 51.3416L28.7894 51.9237L28.7958 51.9328L28.8025 51.9416L29.6025 51.3416ZM35.1217 55.534L35.5054 56.4574L35.1217 55.534ZM37.1217 54.034L36.7807 53.0939L36.7263 53.1136L36.6745 53.1395L37.1217 54.034ZM39.1217 53.534L39.2458 52.5417L39.184 52.534H39.1217V53.534ZM46.999 54.5186L47.1231 53.5263L47.1231 53.5263L46.999 54.5186ZM54.3958 52.4761L53.7802 51.6881L53.7802 51.6881L54.3958 52.4761ZM65.3432 43.9234L65.9589 44.7114L65.9589 44.7114L65.3432 43.9234ZM67.6504 40.3618L68.6499 40.3291L68.6499 40.3291L67.6504 40.3618ZM66.8293 38.6381L66.2188 39.4302L66.2188 39.4302L66.8293 38.6381ZM61.5 40.3618L62.0905 41.1688L62.1289 41.1408L62.1644 41.1092L61.5 40.3618ZM28.0066 48.6607L27.009 48.7292L27.009 48.7292L28.0066 48.6607ZM48.0728 34.9875H49.0728V34.3139L48.4487 34.0608L48.0728 34.9875ZM40.1856 27.3102L39.2133 27.5439L40.1856 27.3102ZM44.3384 22.2647L44.4409 21.27L44.3384 22.2647ZM48.0728 24.1334L47.3132 23.4831L47.0728 23.7638V24.1334H48.0728ZM55.688 27.3102L54.7783 26.8948L54.7579 26.9396L54.7419 26.9862L55.688 27.3102ZM51.6084 22.0155L51.6084 23.0155L51.6489 23.0155L51.6892 23.0122L51.6084 22.0155ZM48.8066 16C48.8066 15.4477 48.3588 15 47.8066 15C47.2543 15 46.8066 15.4477 46.8066 16H48.8066ZM46.8066 18C46.8066 18.5523 47.2543 19 47.8066 19C48.3588 19 48.8066 18.5523 48.8066 18H46.8066ZM43.7202 16.9194C43.3397 16.519 42.7068 16.5029 42.3064 16.8833C41.9061 17.2637 41.8899 17.8967 42.2704 18.2971L43.7202 16.9194ZM43.356 19.4395C43.7364 19.8398 44.3694 19.856 44.7697 19.4756C45.1701 19.0951 45.1862 18.4622 44.8058 18.0618L43.356 19.4395ZM54.1169 17.843C54.4567 17.4076 54.3791 16.7792 53.9437 16.4394C53.5083 16.0997 52.8799 16.1772 52.5402 16.6126L54.1169 17.843ZM51.5706 17.8551C51.2309 18.2905 51.3084 18.9189 51.7438 19.2587C52.1793 19.5984 52.8077 19.5209 53.1474 19.0855L51.5706 17.8551ZM42.9953 41.5L42.8347 42.487L42.9145 42.5H42.9953V41.5ZM33.3487 55.2742L32.8564 56.1446L33.3487 55.2742ZM52.8645 43.0611C53.0652 43.4051 53.152 43.7624 53.0892 44.1448L55.0628 44.469C55.2147 43.5444 54.9809 42.7198 54.592 42.0533L52.8645 43.0611ZM48.6906 46.034H44.1217V48.034H48.6906V46.034ZM30.3217 42.434L28.2641 45.1774L29.8641 46.3774L31.9217 43.634L30.3217 42.434ZM35.5054 56.4574C36.1844 56.1753 36.7014 55.7529 37.0636 55.4214C37.227 55.2719 37.4156 55.0862 37.5014 55.0053C37.6405 54.8742 37.6387 54.8935 37.5689 54.9284L36.6745 53.1395C36.4381 53.2577 36.2336 53.4519 36.1296 53.5499C35.9724 53.6981 35.8778 53.7956 35.7134 53.9459C35.4202 54.2143 35.1039 54.4585 34.7381 54.6105L35.5054 56.4574ZM37.4627 54.974C38.2207 54.699 38.4263 54.6094 38.6033 54.5608C38.6792 54.5399 38.6978 54.534 39.1217 54.534V52.534C38.7457 52.534 38.4534 52.528 38.0739 52.6321C37.7955 52.7085 37.401 52.8689 36.7807 53.0939L37.4627 54.974ZM38.9977 54.5262L46.875 55.5109L47.1231 53.5263L39.2458 52.5417L38.9977 54.5262ZM55.0115 53.2641L65.9589 44.7114L64.7276 43.1354L53.7802 51.6881L55.0115 53.2641ZM68.6499 40.3291C68.6214 39.4599 68.3103 38.5171 67.4398 37.8461L66.2188 39.4302C66.4966 39.6443 66.6365 39.953 66.6509 40.3946L68.6499 40.3291ZM60.9095 39.5548L57.9095 41.7502L59.0905 43.3642L62.0905 41.1688L60.9095 39.5548ZM46.875 55.5109C49.778 55.8738 52.706 55.0652 55.0115 53.2641L53.7802 51.6881C51.8939 53.1617 49.4983 53.8232 47.1231 53.5263L46.875 55.5109ZM28.2641 45.1774C27.5895 46.0768 26.9137 47.3425 27.009 48.7292L29.0043 48.5922C28.9578 47.9159 29.2979 47.1324 29.8641 46.3774L28.2641 45.1774ZM32.8564 56.1446C33.5321 56.5268 34.462 56.8909 35.5054 56.4574L34.7381 54.6105C34.6294 54.6556 34.5326 54.6638 34.4115 54.6411C34.2711 54.6148 34.0896 54.5444 33.8409 54.4037L32.8564 56.1446ZM67.4398 37.8461C66.1902 36.8829 64.8353 37.0458 63.7146 37.5552C62.6426 38.0425 61.6347 38.9041 60.8356 39.6144L62.1644 41.1092C62.9825 40.382 63.7824 39.7214 64.5422 39.3759C65.2535 39.0526 65.7547 39.0724 66.2188 39.4302L67.4398 37.8461ZM53.0892 44.1448C52.9871 44.7667 52.553 45.2294 51.7121 45.5642C50.8571 45.9047 49.7449 46.034 48.6906 46.034V48.034C49.8601 48.034 51.2604 47.8968 52.452 47.4224C53.6578 46.9422 54.8045 46.0414 55.0628 44.469L53.0892 44.1448ZM27.009 48.7292C27.0647 49.5416 27.44 50.1859 27.7984 50.6772C27.9778 50.923 28.173 51.1564 28.3404 51.3578C28.5158 51.5688 28.6631 51.7474 28.7894 51.9237L30.4156 50.7596C30.2406 50.5151 30.047 50.2822 29.8783 50.0792C29.7015 49.8665 29.5491 49.6834 29.4141 49.4983C29.1436 49.1276 29.0221 48.8523 29.0043 48.5922L27.009 48.7292ZM65.9589 44.7114C66.5672 44.2362 67.2408 43.6509 67.7583 42.951C68.2822 42.2423 68.6838 41.3641 68.6499 40.3291L66.6509 40.3946C66.6657 40.8447 66.4992 41.2898 66.1501 41.762C65.7946 42.2429 65.2902 42.6959 64.7276 43.1354L65.9589 44.7114ZM49.9335 42.4978C50.3369 42.5247 50.7477 42.5234 51.087 42.5274C51.4459 42.5316 51.7392 42.5414 51.9969 42.5779C52.4771 42.6459 52.7022 42.7828 52.8645 43.0611L54.592 42.0533C54.0114 41.058 53.1079 40.7153 52.2775 40.5977C51.8799 40.5413 51.4724 40.5318 51.1104 40.5275C50.7288 40.5231 50.3987 40.5244 50.0665 40.5022L49.9335 42.4978ZM48.4487 34.0608C46.9602 33.4571 45.2538 32.2912 43.8389 30.9387C42.398 29.5615 41.4131 28.1379 41.1579 27.0764L39.2133 27.5439C39.6051 29.1736 40.9319 30.9268 42.4569 32.3845C44.0079 33.867 45.9217 35.1941 47.697 35.9141L48.4487 34.0608ZM41.1579 27.0764C40.7674 25.4518 41.1351 24.5113 41.6475 23.9924C42.1945 23.4385 43.1205 23.1445 44.2358 23.2595L44.4409 21.27C42.915 21.1127 41.3173 21.4805 40.2245 22.587C39.0973 23.7284 38.7092 25.4467 39.2133 27.5439L41.1579 27.0764ZM44.2358 23.2595C45.2858 23.3677 46.0491 23.8016 46.5622 24.1928C46.8208 24.39 47.0119 24.573 47.1615 24.7152C47.21 24.7613 47.3283 24.8767 47.4378 24.9547C47.4718 24.9789 47.536 25.0223 47.6211 25.0618C47.6869 25.0924 47.883 25.1778 48.1451 25.1552C48.4934 25.1252 48.7904 24.9206 48.9487 24.6283C49.0681 24.4079 49.0728 24.2042 49.0728 24.1334H47.0728C47.0728 24.0791 47.0753 23.8878 47.1901 23.6758C47.3438 23.392 47.634 23.1919 47.9732 23.1626C48.226 23.1408 48.4106 23.2234 48.4627 23.2475C48.534 23.2806 48.582 23.3142 48.5976 23.3253C48.6332 23.3506 48.6403 23.3615 48.5394 23.2655C48.39 23.1235 48.1289 22.8724 47.7749 22.6024C47.0626 22.0593 45.9587 21.4265 44.4409 21.27L44.2358 23.2595ZM47.0728 34.9875C47.0728 35.2757 47.201 35.6064 47.5083 35.8191C47.7499 35.9863 47.9897 35.999 48.0799 35.9999C48.2695 36.002 48.4214 35.95 48.462 35.9364C48.5858 35.8948 48.7106 35.8335 48.8084 35.7823C49.0217 35.6705 49.3011 35.5026 49.6185 35.2951C50.259 34.8766 51.1155 34.2572 52.0136 33.503C53.7659 32.0314 55.8593 29.8965 56.634 27.6342L54.7419 26.9862C54.1568 28.6948 52.4426 30.531 50.7274 31.9714C49.8916 32.6733 49.0993 33.2452 48.5244 33.6209C48.2342 33.8105 48.0143 33.9404 47.8802 34.0107C47.8043 34.0505 47.7933 34.0512 47.8248 34.0406C47.8364 34.0367 47.8624 34.0284 47.899 34.0203C47.9299 34.0136 48.0037 33.999 48.1017 34.0001C48.1801 34.0009 48.4109 34.0115 48.6465 34.1745C48.9477 34.383 49.0728 34.7075 49.0728 34.9875H47.0728ZM56.5976 27.7255C58.0062 24.6407 55.5436 20.693 51.5275 21.0188L51.6892 23.0122C54.2005 22.8086 55.5456 25.2145 54.7783 26.8948L56.5976 27.7255ZM51.6084 21.0155C50.4125 21.0155 48.7972 21.7494 47.3132 23.4831L48.8325 24.7837C50.0679 23.3405 51.1724 23.0155 51.6084 23.0155L51.6084 21.0155ZM46.8066 16V18H48.8066V16H46.8066ZM42.2704 18.2971L43.356 19.4395L44.8058 18.0618L43.7202 16.9194L42.2704 18.2971ZM52.5402 16.6126L51.5706 17.8551L53.1474 19.0855L54.1169 17.843L52.5402 16.6126ZM35.8394 41.3488L42.8347 42.487L43.1559 40.513L36.1606 39.3748L35.8394 41.3488ZM42.9953 42.5H50V40.5H42.9953V42.5ZM28.8025 51.9416L29.9041 53.4105L31.5041 52.2105L30.4025 50.7416L28.8025 51.9416ZM33.8409 54.4037C32.9515 53.9007 32.1878 53.1221 31.5041 52.2105L29.9041 53.4105C30.6756 54.4391 31.6348 55.4537 32.8564 56.1446L33.8409 54.4037Z" fill="white"/>
</svg>
